<svg xmlns:osb="http://www.openswatchbook.org/uri/2009/osb" xmlns="http://www.w3.org/2000/svg" xmlns:xlink="http://www.w3.org/1999/xlink" viewBox="0 0 44 44"><defs><linearGradient id="a" osb:paint="solid"><stop offset="0"/></linearGradient><linearGradient xlink:href="#a" id="b" x1="0" y1="22" x2="44" y2="22" gradientUnits="userSpaceOnUse"/></defs><ellipse cx="22.078" cy="21.846" rx="21.872" ry="21.641" transform="skewX(-.272) scale(1 .99999)" fill="#fff"/><path d="M22 0C9.8 0 0 9.8 0 22s9.8 22 22 22 22-9.8 22-22S34.2 0 22 0zm12.7 15.1l-16 16.6c-.2.2-.4.3-.7.3-.3 0-.6-.1-.7-.3l-7.8-8.4-.2-.2c-.2-.2-.3-.5-.3-.7s.1-.5.3-.7l1.4-1.4c.4-.4 1-.4 1.4 0l.1.1 5.5 5.9c.2.2.5.2.7 0l13.4-13.9h.1c.4-.4 1-.4 1.4 0l1.4 1.4c.4.3.4.9 0 1.3z" fill="url(#b)"/><path d="M20.83 43.946c-1.227-.085-2.13-.196-3.076-.38A21.95 21.95 0 0 1 1.65 30.338c-2.338-5.72-2.141-12.296.534-17.871A21.899 21.899 0 0 1 18.138.365 22.775 22.775 0 0 1 25.08.241 21.84 21.84 0 0 1 40.29 9.8c.697 1.052.978 1.544 1.51 2.646 1.204 2.49 1.89 5.061 2.11 7.907.078 1.003.036 3.285-.078 4.19-.406 3.241-1.393 6.143-2.998 8.814-.933 1.552-1.914 2.797-3.282 4.164-.552.552-1.246 1.2-1.542 1.442-3.649 2.97-7.871 4.638-12.564 4.964-.682.047-2.056.057-2.615.019zm-2.46-11.998c.166-.067 1.833-1.77 8.27-8.446 4.435-4.599 8.115-8.432 8.18-8.518.154-.206.228-.5.186-.736-.029-.16-.177-.336-.912-1.082-.542-.55-.957-.927-1.084-.986-.352-.164-.594-.126-1.166.184-.052.028-3.073 3.144-6.712 6.923-3.639 3.78-6.704 6.938-6.812 7.018-.155.117-.227.14-.35.113-.122-.027-.783-.708-3.045-3.135-2.09-2.244-2.947-3.129-3.098-3.202-.265-.13-.55-.127-.842.005-.317.144-1.75 1.576-1.894 1.894a1.01 1.01 0 0 0-.05.763c.036.102 1.636 1.865 4.233 4.662 4.415 4.756 4.267 4.61 4.722 4.622.091.002.26-.034.374-.08z" fill="#76a7e1"/></svg>