<svg height="128" width="128" xmlns="http://www.w3.org/2000/svg"><path d="M127.101 102.155a4.061 4.061 0 0 1-4.062 4.061H5.16a4.06 4.06 0 0 1-4.061-4.061V26.099a4.06 4.06 0 0 1 4.061-4.061h117.879a4.062 4.062 0 0 1 4.062 4.061v76.056z" fill="gray"/><path clip-rule="evenodd" d="M79.881 46.947c1.037.195 2.077.379 3.112.586.801.16 1.813.181 2.28.737.499.594-.079 1.538-.187 2.326-.158 1.159-.415 2.306-.57 3.467-.075.551-.181.662-.742.422-2.434-1.039-4.975-1.458-7.617-1.117-.869.112-1.698.354-2.405.896-1.145.877-1.206 2.08-.146 3.059.91.841 2.032 1.351 3.127 1.891 1.486.73 2.991 1.424 4.312 2.445 3.747 2.895 4.382 7.566 1.531 11.369-1.805 2.405-4.335 3.638-7.171 4.347-.99.248-1.998.398-3.014.495-.166.018-.368-.049-.473.159h-.307a2.7 2.7 0 0 0-1.377 0h-.46a2.051 2.051 0 0 0-1.226 0h-.307c-1.192-.352-2.447-.327-3.655-.601-1.045-.236-2.086-.478-3.097-.835-.376-.131-.522-.337-.452-.739.33-1.884.649-3.769.958-5.654.102-.622.447-.396.768-.246 2.292 1.078 4.693 1.687 7.228 1.764 1.364.042 2.707-.047 3.969-.622 2.17-.989 2.393-2.984.497-4.408-1.049-.787-2.253-1.293-3.423-1.857-1.267-.61-2.471-1.318-3.592-2.174-4.278-3.259-3.577-7.998-1.247-10.942 1.684-2.128 3.979-3.295 6.535-4.017 1.009-.285 2.039-.454 3.078-.582.187-.024.421.061.55-.169h.152c.51.125 1.021.125 1.53 0h.307c.459.12.919.12 1.378 0h.156zm-67.833.612c4.531-.001 9.062-.038 13.592.008 2.008.02 3.086.955 3.49 2.861.891 4.202 1.755 8.408 2.627 12.614.025.122.012.253.018.379-.525-.012-.632-.462-.8-.81-.792-1.628-1.725-3.167-2.875-4.566a24.837 24.837 0 0 0-6.161-5.387c-.504-.313-.942-.676-1.272-1.166-2.7-1.557-5.593-2.606-8.618-3.32l-.001-.613z" fill="#FFF" fill-rule="evenodd"/><path clip-rule="evenodd" d="M78.042 46.947a1.748 1.748 0 0 1-1.53 0h1.53zm1.685 0a1.43 1.43 0 0 1-1.378 0h1.378zM70.234 78.03a1.422 1.422 0 0 1 1.377 0h-1.377zm-1.685 0a1.18 1.18 0 0 1 1.226 0h-1.226zM20.666 51.491c4.818 2.65 8.532 6.35 10.839 11.39.083.183.18.36.27.539l.987 4.367c.268-.233.309-.541.412-.802a5893.833 5893.833 0 0 0 7.348-18.798c.186-.477.407-.67.936-.663 2.423.028 4.847.025 7.269.002.577-.005.701.107.458.67-4.129 9.571-8.246 19.148-12.353 28.729-.178.416-.416.567-.862.563a437.311 437.311 0 0 0-7.423.004c-.514.006-.703-.209-.83-.667-2.344-8.445-4.699-16.889-7.051-25.334zm31.119 26.055c-1.123 0-2.247-.024-3.368.01-.578.019-.766-.134-.66-.741.882-5.071 1.738-10.148 2.604-15.225.751-4.397 1.52-8.792 2.242-13.193.107-.652.31-.894 1.003-.878 2.193.047 4.388.031 6.582.007.559-.006.754.097.646.726a7881.672 7881.672 0 0 0-4.852 28.498c-.104.618-.329.852-.983.814-1.068-.063-2.142-.018-3.214-.018zm60.756-4.274c-1.387-6.272-2.786-12.543-4.156-18.819-.441-2.018-.879-4.036-1.354-6.046-.248-1.046-.406-1.154-1.455-1.154-1.913 0-3.827.026-5.739-.008-2.069-.037-3.524.86-4.346 2.747-1.363 3.132-2.766 6.249-4.138 9.376-1.854 4.225-3.731 8.438-5.585 12.664-.688 1.563-1.451 3.095-2.032 4.701-.271.749-.031 1.062.758 1.064 2.424.006 4.847-.012 7.271.012.576.007.89-.231 1.105-.736.394-.915.746-1.845 1.069-2.784.233-.683.644-.965 1.36-.962 2.627.016 5.254-.002 7.881.01.923.005 1.079.148 1.28 1.066.19.873.379 1.745.59 2.611.135.556.411.804 1.011.795 2.092-.025 4.184-.01 6.275-.009.282 0 .567.027.771-.23v-.306c-.25-1.322-.275-2.67-.566-3.992zm-10.04-6.385c-1.81-.029-3.618-.029-5.427 0-.575.008-.624-.168-.433-.652.939-2.366 1.855-4.74 2.777-7.113.4-1.034.793-2.07 1.189-3.105l.208.031c.571 2.608 1.145 5.215 1.713 7.823.169.771.298 1.552.508 2.311.15.537.051.714-.535.705z" fill="#FFF" fill-rule="evenodd"/></svg>