<?xml version="1.0" ?><!DOCTYPE svg  PUBLIC '-//W3C//DTD SVG 1.1//EN'  'http://www.w3.org/Graphics/SVG/1.1/DTD/svg11.dtd'><svg enable-background="new 0 0 128 128" height="128px" id="Layer_1" version="1.1" viewBox="0 0 128 128" width="128px" xml:space="preserve" xmlns="http://www.w3.org/2000/svg" xmlns:xlink="http://www.w3.org/1999/xlink"><path d="M127.101,102.155c0,2.243-1.818,4.061-4.062,4.061H5.16c-2.242,0-4.061-1.817-4.061-4.061V26.099  c0-2.243,1.818-4.061,4.061-4.061h117.879c2.243,0,4.062,1.818,4.062,4.061V102.155z" fill="#808080"/><g><path clip-rule="evenodd" d="M79.881,46.947c1.037,0.195,2.077,0.379,3.112,0.586   c0.801,0.16,1.813,0.181,2.28,0.737c0.499,0.594-0.079,1.538-0.187,2.326c-0.158,1.159-0.415,2.306-0.57,3.467   c-0.075,0.551-0.181,0.662-0.742,0.422c-2.434-1.039-4.975-1.458-7.617-1.117c-0.869,0.112-1.698,0.354-2.405,0.896   c-1.145,0.877-1.206,2.08-0.146,3.059c0.91,0.841,2.032,1.351,3.127,1.891c1.486,0.73,2.991,1.424,4.312,2.445   c3.747,2.895,4.382,7.566,1.531,11.369c-1.805,2.405-4.335,3.638-7.171,4.347c-0.99,0.248-1.998,0.398-3.014,0.495   c-0.166,0.018-0.368-0.049-0.473,0.159c-0.102,0-0.204,0-0.307,0c-0.459-0.119-0.919-0.119-1.377,0c-0.153,0-0.308,0-0.46,0   c-0.408-0.125-0.817-0.125-1.226,0c-0.102,0-0.204,0-0.307,0c-1.192-0.352-2.447-0.327-3.655-0.601   c-1.045-0.236-2.086-0.478-3.097-0.835c-0.376-0.131-0.522-0.337-0.452-0.739c0.33-1.884,0.649-3.769,0.958-5.654   c0.102-0.622,0.447-0.396,0.768-0.246c2.292,1.078,4.693,1.687,7.228,1.764c1.364,0.042,2.707-0.047,3.969-0.622   c2.17-0.989,2.393-2.984,0.497-4.408c-1.049-0.787-2.253-1.293-3.423-1.857c-1.267-0.61-2.471-1.318-3.592-2.174   c-4.278-3.259-3.577-7.998-1.247-10.942c1.684-2.128,3.979-3.295,6.535-4.017c1.009-0.285,2.039-0.454,3.078-0.582   c0.187-0.024,0.421,0.061,0.55-0.169c0.049,0,0.101,0,0.152,0c0.51,0.125,1.021,0.125,1.53,0c0.103,0,0.205,0,0.307,0   c0.459,0.12,0.919,0.12,1.378,0C79.778,46.947,79.829,46.947,79.881,46.947z" fill="#FFFFFF" fill-rule="evenodd"/><path clip-rule="evenodd" d="M12.048,47.559c4.531-0.001,9.062-0.038,13.592,0.008   c2.008,0.02,3.086,0.955,3.49,2.861c0.891,4.202,1.755,8.408,2.627,12.614c0.025,0.122,0.012,0.253,0.018,0.379   c-0.525-0.012-0.632-0.462-0.8-0.81c-0.792-1.628-1.725-3.167-2.875-4.566c-1.755-2.135-3.811-3.934-6.161-5.387   c-0.504-0.313-0.942-0.676-1.272-1.166c-2.7-1.557-5.593-2.606-8.618-3.32C12.048,47.967,12.048,47.764,12.048,47.559z" fill="#FFFFFF" fill-rule="evenodd"/><path clip-rule="evenodd" d="M78.042,46.947c-0.509,0.235-1.021,0.235-1.53,0   C77.021,46.947,77.533,46.947,78.042,46.947z" fill="#FFFFFF" fill-rule="evenodd"/><path clip-rule="evenodd" d="M79.727,46.947c-0.459,0.236-0.919,0.236-1.378,0   C78.808,46.947,79.268,46.947,79.727,46.947z" fill="#FFFFFF" fill-rule="evenodd"/><path clip-rule="evenodd" d="M70.234,78.03c0.458-0.237,0.918-0.237,1.377,0   C71.152,78.03,70.692,78.03,70.234,78.03z" fill="#FFFFFF" fill-rule="evenodd"/><path clip-rule="evenodd" d="M68.549,78.03c0.408-0.229,0.817-0.229,1.226,0   C69.366,78.03,68.957,78.03,68.549,78.03z" fill="#FFFFFF" fill-rule="evenodd"/><path clip-rule="evenodd" d="M20.666,51.491c4.818,2.65,8.532,6.35,10.839,11.39   c0.083,0.183,0.18,0.36,0.27,0.539c0.325,1.437,0.649,2.874,0.987,4.367c0.268-0.233,0.309-0.541,0.412-0.802   c2.457-6.264,4.913-12.527,7.348-18.798c0.186-0.477,0.407-0.67,0.936-0.663c2.423,0.028,4.847,0.025,7.269,0.002   c0.577-0.005,0.701,0.107,0.458,0.67c-4.129,9.571-8.246,19.148-12.353,28.729c-0.178,0.416-0.416,0.567-0.862,0.563   c-2.475-0.017-4.949-0.021-7.423,0.004c-0.514,0.006-0.703-0.209-0.83-0.667C25.373,68.38,23.018,59.936,20.666,51.491z" fill="#FFFFFF" fill-rule="evenodd"/><path clip-rule="evenodd" d="M51.785,77.546c-1.123,0-2.247-0.024-3.368,0.01   c-0.578,0.019-0.766-0.134-0.66-0.741c0.882-5.071,1.738-10.148,2.604-15.225c0.751-4.397,1.52-8.792,2.242-13.193   c0.107-0.652,0.31-0.894,1.003-0.878c2.193,0.047,4.388,0.031,6.582,0.007c0.559-0.006,0.754,0.097,0.646,0.726   c-1.636,9.497-3.251,18.996-4.852,28.498c-0.104,0.618-0.329,0.852-0.983,0.814C53.931,77.501,52.857,77.546,51.785,77.546z" fill="#FFFFFF" fill-rule="evenodd"/><g><g><path clip-rule="evenodd" d="M112.541,73.272c-1.387-6.272-2.786-12.543-4.156-18.819     c-0.441-2.018-0.879-4.036-1.354-6.046c-0.248-1.046-0.406-1.154-1.455-1.154c-1.913,0-3.827,0.026-5.739-0.008     c-2.069-0.037-3.524,0.86-4.346,2.747c-1.363,3.132-2.766,6.249-4.138,9.376c-1.854,4.225-3.731,8.438-5.585,12.664     c-0.688,1.563-1.451,3.095-2.032,4.701c-0.271,0.749-0.031,1.062,0.758,1.064c2.424,0.006,4.847-0.012,7.271,0.012     c0.576,0.007,0.89-0.231,1.105-0.736c0.394-0.915,0.746-1.845,1.069-2.784c0.233-0.683,0.644-0.965,1.36-0.962     c2.627,0.016,5.254-0.002,7.881,0.01c0.923,0.005,1.079,0.148,1.28,1.066c0.19,0.873,0.379,1.745,0.59,2.611     c0.135,0.556,0.411,0.804,1.011,0.795c2.092-0.025,4.184-0.01,6.275-0.009c0.282,0,0.567,0.027,0.771-0.23     c0-0.102,0-0.204,0-0.306C112.857,75.942,112.832,74.594,112.541,73.272z M102.501,66.887c-1.81-0.029-3.618-0.029-5.427,0     c-0.575,0.008-0.624-0.168-0.433-0.652c0.939-2.366,1.855-4.74,2.777-7.113c0.4-1.034,0.793-2.07,1.189-3.105     c0.069,0.011,0.139,0.021,0.208,0.031c0.571,2.608,1.145,5.215,1.713,7.823c0.169,0.771,0.298,1.552,0.508,2.311     C103.186,66.719,103.087,66.896,102.501,66.887z" fill="#FFFFFF" fill-rule="evenodd"/></g></g></g></svg>